<svg xmlns="http://www.w3.org/2000/svg" viewBox="0 0 1200 675" width="1200" height="675" role="img" aria-label="A checklist panel">
  <defs>
    <radialGradient id="cover-brief-bg" cx="50%" cy="42%" r="75%">
      <stop offset="0" stop-color="#12284A"/>
      <stop offset="0.55" stop-color="#0D192D"/>
      <stop offset="1" stop-color="#060D1A"/>
    </radialGradient>
    <radialGradient id="cover-brief-fade" cx="50%" cy="50%" r="50%">
      <stop offset="0" stop-color="#fff" stop-opacity="1"/>
      <stop offset="0.7" stop-color="#fff" stop-opacity="0.35"/>
      <stop offset="1" stop-color="#fff" stop-opacity="0"/>
    </radialGradient>
    <mask id="cover-brief-floor"><rect width="100%" height="100%" fill="url(#cover-brief-fade)"/></mask>
    <linearGradient id="cover-brief-glass" x1="0" y1="0" x2="0" y2="1">
      <stop offset="0" stop-color="#5CC8F5" stop-opacity="0.34"/>
      <stop offset="1" stop-color="#0088CF" stop-opacity="0.06"/>
    </linearGradient>
    <linearGradient id="cover-brief-glassR" x1="0" y1="0" x2="0" y2="1">
      <stop offset="0" stop-color="#EE2424" stop-opacity="0.55"/>
      <stop offset="1" stop-color="#EE2424" stop-opacity="0.08"/>
    </linearGradient>
    <linearGradient id="cover-brief-beam" x1="0" y1="0" x2="0" y2="1">
      <stop offset="0" stop-color="#5CC8F5" stop-opacity="0.55"/>
      <stop offset="1" stop-color="#5CC8F5" stop-opacity="0"/>
    </linearGradient>
    <linearGradient id="cover-brief-beamR" x1="0" y1="0" x2="0" y2="1">
      <stop offset="0" stop-color="#EE2424" stop-opacity="0.5"/>
      <stop offset="1" stop-color="#EE2424" stop-opacity="0"/>
    </linearGradient>
    <filter id="cover-brief-glow" x="-50%" y="-50%" width="200%" height="200%">
      <feGaussianBlur stdDeviation="6" result="b"/>
      <feMerge><feMergeNode in="b"/><feMergeNode in="SourceGraphic"/></feMerge>
    </filter>
    <filter id="cover-brief-haze" x="-50%" y="-50%" width="200%" height="200%"><feGaussianBlur stdDeviation="40"/></filter>
  </defs><rect width="1200" height="675" fill="url(#cover-brief-bg)"/><circle cx="600" cy="283.5" r="280" fill="#0088CF" opacity="0.42" filter="url(#cover-brief-haze)"/><circle cx="480" cy="405" r="80" fill="#EE2424" opacity="0.2" filter="url(#cover-brief-haze)"/><circle cx="782.7" cy="409.8" r="1.4" fill="#5CC8F5" opacity="0.7"/><circle cx="266.9" cy="423.6" r="1.9" fill="#5CC8F5" opacity="0.7"/><circle cx="1094.6" cy="582.2" r="0.7" fill="#5CC8F5" opacity="0.7"/><circle cx="269.3" cy="641.4" r="1.2" fill="#5CC8F5" opacity="0.6"/><circle cx="698.6" cy="23.3" r="1" fill="#5CC8F5" opacity="0.5"/><circle cx="1154" cy="624.1" r="0.6" fill="#5CC8F5" opacity="0.7"/><circle cx="1182.9" cy="666.2" r="1.1" fill="#5CC8F5" opacity="0.7"/><circle cx="1149" cy="434.5" r="2.1" fill="#5CC8F5" opacity="0.7"/><circle cx="491" cy="238.3" r="1.2" fill="#5CC8F5" opacity="0.6"/><circle cx="379.8" cy="530.1" r="1.4" fill="#5CC8F5" opacity="0.4"/><circle cx="282.9" cy="651.4" r="2.4" fill="#5CC8F5" opacity="0.5"/><circle cx="515.1" cy="195.6" r="1" fill="#5CC8F5" opacity="0.4"/><circle cx="53.8" cy="673.3" r="2.4" fill="#5CC8F5" opacity="0.7"/><circle cx="108.8" cy="582.8" r="1.7" fill="#5CC8F5" opacity="0.5"/><circle cx="699.5" cy="392.4" r="1.3" fill="#5CC8F5" opacity="0.5"/><circle cx="417.3" cy="526.5" r="2.2" fill="#5CC8F5" opacity="0.7"/><circle cx="682.5" cy="245.9" r="1.8" fill="#5CC8F5" opacity="0.7"/><circle cx="870.7" cy="656.2" r="1.2" fill="#5CC8F5" opacity="0.7"/><circle cx="133.8" cy="38.3" r="0.9" fill="#5CC8F5" opacity="0.3"/><circle cx="22.3" cy="591.2" r="1.3" fill="#5CC8F5" opacity="0.7"/><circle cx="123.6" cy="13.7" r="2" fill="#5CC8F5" opacity="0.3"/><circle cx="1009.7" cy="257.1" r="2.2" fill="#5CC8F5" opacity="0.6"/><circle cx="20.3" cy="173.2" r="0.7" fill="#5CC8F5" opacity="0.3"/><circle cx="703.9" cy="267.5" r="1.9" fill="#5CC8F5" opacity="0.7"/><circle cx="778.9" cy="391.7" r="0.8" fill="#5CC8F5" opacity="0.3"/><circle cx="578.3" cy="169" r="0.8" fill="#5CC8F5" opacity="0.3"/><circle cx="676.8" cy="295.1" r="0.8" fill="#5CC8F5" opacity="0.7"/><circle cx="1098.7" cy="161.9" r="2.4" fill="#5CC8F5" opacity="0.2"/><circle cx="1148.7" cy="281" r="1.3" fill="#5CC8F5" opacity="0.6"/><circle cx="988.3" cy="523.9" r="2.2" fill="#5CC8F5" opacity="0.4"/><circle cx="1049.8" cy="5.7" r="1.4" fill="#5CC8F5" opacity="0.8"/><circle cx="548.5" cy="608.8" r="1.1" fill="#5CC8F5" opacity="0.6"/><circle cx="197.3" cy="344" r="1.9" fill="#5CC8F5" opacity="0.3"/><circle cx="143.4" cy="279.3" r="1.5" fill="#5CC8F5" opacity="0.5"/><circle cx="94.7" cy="168.4" r="1.9" fill="#5CC8F5" opacity="0.5"/><circle cx="805.1" cy="457.8" r="1.9" fill="#5CC8F5" opacity="0.3"/><circle cx="26.6" cy="363" r="2" fill="#5CC8F5" opacity="0.3"/><circle cx="1167.3" cy="192.6" r="1.2" fill="#5CC8F5" opacity="0.3"/><circle cx="190.7" cy="191.4" r="1.3" fill="#5CC8F5" opacity="0.2"/><circle cx="191.7" cy="588.3" r="1.1" fill="#5CC8F5" opacity="0.4"/><circle cx="231.8" cy="489.6" r="1.3" fill="#5CC8F5" opacity="0.5"/><circle cx="993.7" cy="567.8" r="0.7" fill="#5CC8F5" opacity="0.3"/><circle cx="708.7" cy="546.2" r="1.7" fill="#EE2424" opacity="0.4"/><circle cx="335.7" cy="531.4" r="1.2" fill="#5CC8F5" opacity="0.5"/><circle cx="970.8" cy="525.7" r="1.5" fill="#5CC8F5" opacity="0.4"/><circle cx="753.7" cy="316.1" r="1.7" fill="#5CC8F5" opacity="0.2"/><circle cx="324.6" cy="181.8" r="1.6" fill="#5CC8F5" opacity="0.8"/><circle cx="796.3" cy="502.1" r="0.9" fill="#5CC8F5" opacity="0.6"/><circle cx="306.3" cy="23.8" r="0.8" fill="#5CC8F5" opacity="0.3"/><circle cx="754.8" cy="636.4" r="1.5" fill="#5CC8F5" opacity="0.5"/><circle cx="673.4" cy="386.7" r="2.3" fill="#5CC8F5" opacity="0.3"/><circle cx="775.2" cy="218.8" r="1.4" fill="#EE2424" opacity="0.6"/><circle cx="1187.7" cy="559.5" r="2.1" fill="#5CC8F5" opacity="0.3"/><circle cx="749.6" cy="175.1" r="1.3" fill="#5CC8F5" opacity="0.6"/><circle cx="581.9" cy="483" r="1.8" fill="#5CC8F5" opacity="0.7"/><circle cx="560.6" cy="190.8" r="2.4" fill="#5CC8F5" opacity="0.4"/><circle cx="748.8" cy="286.2" r="2.2" fill="#5CC8F5" opacity="0.5"/><circle cx="612.1" cy="528.5" r="0.7" fill="#5CC8F5" opacity="0.3"/><circle cx="450.7" cy="87.6" r="1.8" fill="#5CC8F5" opacity="0.3"/><circle cx="632.2" cy="208" r="0.7" fill="#5CC8F5" opacity="0.4"/><circle cx="535.4" cy="592.2" r="2.4" fill="#5CC8F5" opacity="0.3"/><circle cx="921" cy="71.2" r="2.1" fill="#5CC8F5" opacity="0.2"/><circle cx="689.2" cy="354" r="0.9" fill="#5CC8F5" opacity="0.3"/><circle cx="641.9" cy="658.7" r="0.7" fill="#5CC8F5" opacity="0.3"/><circle cx="259.7" cy="630.8" r="2.1" fill="#5CC8F5" opacity="0.7"/><circle cx="67.4" cy="417.2" r="2" fill="#5CC8F5" opacity="0.2"/><circle cx="570" cy="441.4" r="1.9" fill="#5CC8F5" opacity="0.8"/><circle cx="952.5" cy="404.4" r="1.3" fill="#5CC8F5" opacity="0.3"/><circle cx="724.7" cy="501.4" r="0.8" fill="#5CC8F5" opacity="0.7"/><circle cx="127.4" cy="665.9" r="1.1" fill="#5CC8F5" opacity="0.7"/><g mask="url(#cover-brief-floor)"><path d="M624 -128L-345.9 432M624 -128L1593.9 432M672.5 -100L-297.4 460M575.5 -100L1545.4 460M721 -72L-248.9 488M527 -72L1496.9 488M769.5 -44L-200.4 516M478.5 -44L1448.4 516M818 -16L-151.9 544M430 -16L1399.9 544M866.5 12L-103.4 572M381.5 12L1351.4 572M915 40L-54.9 600M333 40L1302.9 600M963.5 68L-6.4 628M284.5 68L1254.4 628M1012 96L42 656M236 96L1206 656M1060.5 124L90.5 684M187.5 124L1157.5 684M1109 152L139 712M139 152L1109 712M1157.5 180L187.5 740M90.5 180L1060.5 740M1206 208L236 768M42 208L1012 768M1254.4 236L284.5 796M-6.4 236L963.5 796M1302.9 264L333 824M-54.9 264L915 824M1351.4 292L381.5 852M-103.4 292L866.5 852M1399.9 320L430 880M-151.9 320L818 880M1448.4 348L478.5 908M-200.4 348L769.5 908M1496.9 376L527 936M-248.9 376L721 936M1545.4 404L575.5 964M-297.4 404L672.5 964M1593.9 432L624 992M-345.9 432L624 992" stroke="#0088CF" stroke-width="1" opacity="0.45" fill="none"/></g><rect x="633.1" y="229" width="6" height="168" fill="url(#cover-brief-beam)" opacity="0.6"/><g><polygon points="648.2,40 963.5,222 660.4,397 345.1,215" fill="#5CC8F5" fill-opacity="0.1" stroke="#5CC8F5" stroke-width="1.4" stroke-opacity="0.85"/></g><g filter="url(#cover-brief-glow)"><circle cx="624" cy="110" r="10" fill="#5CC8F5" fill-opacity="0.25" stroke="#5CC8F5" stroke-width="2"/></g><path d="M660.4 131L805.9 215" stroke="#DDF1FC" stroke-opacity="0.75" stroke-width="3" fill="none"/><g filter="url(#cover-brief-glow)"><circle cx="557.3" cy="148.5" r="10" fill="#5CC8F5" fill-opacity="0.25" stroke="#5CC8F5" stroke-width="2"/></g><path d="M593.7 169.5L787.7 281.5" stroke="#DDF1FC" stroke-opacity="0.75" stroke-width="3" fill="none"/><g filter="url(#cover-brief-glow)"><circle cx="490.6" cy="187" r="10" fill="#5CC8F5" fill-opacity="0.25" stroke="#5CC8F5" stroke-width="2"/></g><path d="M527 208L672.5 292" stroke="#DDF1FC" stroke-opacity="0.75" stroke-width="3" fill="none"/><g filter="url(#cover-brief-glow)"><circle cx="424" cy="225.5" r="10" fill="#EE2424" fill-opacity="0.25" stroke="#FF6A5C" stroke-width="2"/></g><path d="M460.3 246.5L654.3 358.5" stroke="#DDF1FC" stroke-opacity="0.75" stroke-width="3" fill="none"/></svg>
