<svg xmlns="http://www.w3.org/2000/svg" viewBox="0 0 1200 675" width="1200" height="675" role="img" aria-label="A sound waveform">
  <defs>
    <radialGradient id="cover-podcast-bg" cx="50%" cy="42%" r="75%">
      <stop offset="0" stop-color="#12284A"/>
      <stop offset="0.55" stop-color="#0D192D"/>
      <stop offset="1" stop-color="#060D1A"/>
    </radialGradient>
    <radialGradient id="cover-podcast-fade" cx="50%" cy="50%" r="50%">
      <stop offset="0" stop-color="#fff" stop-opacity="1"/>
      <stop offset="0.7" stop-color="#fff" stop-opacity="0.35"/>
      <stop offset="1" stop-color="#fff" stop-opacity="0"/>
    </radialGradient>
    <mask id="cover-podcast-floor"><rect width="100%" height="100%" fill="url(#cover-podcast-fade)"/></mask>
    <linearGradient id="cover-podcast-glass" x1="0" y1="0" x2="0" y2="1">
      <stop offset="0" stop-color="#5CC8F5" stop-opacity="0.34"/>
      <stop offset="1" stop-color="#0088CF" stop-opacity="0.06"/>
    </linearGradient>
    <linearGradient id="cover-podcast-glassR" x1="0" y1="0" x2="0" y2="1">
      <stop offset="0" stop-color="#EE2424" stop-opacity="0.55"/>
      <stop offset="1" stop-color="#EE2424" stop-opacity="0.08"/>
    </linearGradient>
    <linearGradient id="cover-podcast-beam" x1="0" y1="0" x2="0" y2="1">
      <stop offset="0" stop-color="#5CC8F5" stop-opacity="0.55"/>
      <stop offset="1" stop-color="#5CC8F5" stop-opacity="0"/>
    </linearGradient>
    <linearGradient id="cover-podcast-beamR" x1="0" y1="0" x2="0" y2="1">
      <stop offset="0" stop-color="#EE2424" stop-opacity="0.5"/>
      <stop offset="1" stop-color="#EE2424" stop-opacity="0"/>
    </linearGradient>
    <filter id="cover-podcast-glow" x="-50%" y="-50%" width="200%" height="200%">
      <feGaussianBlur stdDeviation="6" result="b"/>
      <feMerge><feMergeNode in="b"/><feMergeNode in="SourceGraphic"/></feMerge>
    </filter>
    <filter id="cover-podcast-haze" x="-50%" y="-50%" width="200%" height="200%"><feGaussianBlur stdDeviation="40"/></filter>
  </defs><rect width="1200" height="675" fill="url(#cover-podcast-bg)"/><circle cx="600" cy="337.5" r="260" fill="#0088CF" opacity="0.4" filter="url(#cover-podcast-haze)"/><circle cx="600" cy="337.5" r="70" fill="#EE2424" opacity="0.3" filter="url(#cover-podcast-haze)"/><circle cx="162.8" cy="516.2" r="1.6" fill="#5CC8F5" opacity="0.4"/><circle cx="832" cy="396.6" r="2.3" fill="#5CC8F5" opacity="0.2"/><circle cx="462.9" cy="536" r="1.3" fill="#5CC8F5" opacity="0.5"/><circle cx="132" cy="41.2" r="1.4" fill="#5CC8F5" opacity="0.3"/><circle cx="912.7" cy="183.1" r="0.7" fill="#5CC8F5" opacity="0.2"/><circle cx="708.4" cy="35.5" r="1.4" fill="#5CC8F5" opacity="0.5"/><circle cx="895.5" cy="621.4" r="1.7" fill="#5CC8F5" opacity="0.3"/><circle cx="174.8" cy="348.2" r="0.6" fill="#5CC8F5" opacity="0.3"/><circle cx="208.3" cy="27.6" r="2.3" fill="#5CC8F5" opacity="0.3"/><circle cx="923.8" cy="227.2" r="2" fill="#5CC8F5" opacity="0.5"/><circle cx="1115.6" cy="97.4" r="1.1" fill="#5CC8F5" opacity="0.8"/><circle cx="523.5" cy="247.8" r="2" fill="#5CC8F5" opacity="0.7"/><circle cx="752.6" cy="387.6" r="1.4" fill="#5CC8F5" opacity="0.4"/><circle cx="263.6" cy="107.9" r="1.2" fill="#5CC8F5" opacity="0.6"/><circle cx="110.9" cy="73.9" r="2" fill="#5CC8F5" opacity="0.6"/><circle cx="789.9" cy="400.4" r="1" fill="#5CC8F5" opacity="0.6"/><circle cx="837.2" cy="562.4" r="0.9" fill="#5CC8F5" opacity="0.7"/><circle cx="756.2" cy="418.1" r="1.6" fill="#5CC8F5" opacity="0.4"/><circle cx="602.2" cy="113.6" r="1.6" fill="#EE2424" opacity="0.7"/><circle cx="658.8" cy="107" r="0.9" fill="#5CC8F5" opacity="0.8"/><circle cx="91.1" cy="259.3" r="1.8" fill="#5CC8F5" opacity="0.3"/><circle cx="1029.9" cy="68.4" r="2.2" fill="#5CC8F5" opacity="0.7"/><circle cx="521.6" cy="263.9" r="1.6" fill="#5CC8F5" opacity="0.5"/><circle cx="100" cy="291.6" r="1.9" fill="#5CC8F5" opacity="0.6"/><circle cx="651.7" cy="336.4" r="1.2" fill="#5CC8F5" opacity="0.5"/><circle cx="62" cy="144.3" r="2.1" fill="#5CC8F5" opacity="0.7"/><circle cx="893.6" cy="160" r="1.2" fill="#5CC8F5" opacity="0.4"/><circle cx="366" cy="199.1" r="2.4" fill="#EE2424" opacity="0.7"/><circle cx="751.8" cy="533.2" r="1.8" fill="#EE2424" opacity="0.6"/><circle cx="784.3" cy="273.5" r="1.6" fill="#5CC8F5" opacity="0.7"/><circle cx="613.3" cy="250.7" r="1.1" fill="#5CC8F5" opacity="0.2"/><circle cx="104.9" cy="278.7" r="1.5" fill="#5CC8F5" opacity="0.7"/><circle cx="712.9" cy="194.2" r="1.3" fill="#5CC8F5" opacity="0.3"/><circle cx="807.6" cy="415.3" r="0.7" fill="#5CC8F5" opacity="0.4"/><circle cx="94.6" cy="275" r="1.8" fill="#5CC8F5" opacity="0.5"/><circle cx="190.5" cy="431.2" r="1.6" fill="#5CC8F5" opacity="0.4"/><circle cx="689.4" cy="624.7" r="2.2" fill="#5CC8F5" opacity="0.2"/><circle cx="1167.7" cy="565.8" r="1.9" fill="#5CC8F5" opacity="0.5"/><circle cx="711" cy="104.5" r="1.7" fill="#5CC8F5" opacity="0.5"/><circle cx="130.9" cy="449.5" r="1.7" fill="#5CC8F5" opacity="0.5"/><circle cx="313.3" cy="272.9" r="2.2" fill="#5CC8F5" opacity="0.5"/><circle cx="674.4" cy="344.9" r="0.7" fill="#5CC8F5" opacity="0.8"/><circle cx="760.2" cy="230.1" r="1.6" fill="#5CC8F5" opacity="0.4"/><circle cx="436.8" cy="660.5" r="1.2" fill="#5CC8F5" opacity="0.4"/><circle cx="351.6" cy="357.9" r="1.1" fill="#5CC8F5" opacity="0.3"/><circle cx="780.5" cy="435.8" r="0.6" fill="#5CC8F5" opacity="0.5"/><circle cx="404.2" cy="237.1" r="2.2" fill="#5CC8F5" opacity="0.6"/><circle cx="146" cy="332.9" r="1.7" fill="#5CC8F5" opacity="0.6"/><circle cx="909.8" cy="535.7" r="2" fill="#5CC8F5" opacity="0.4"/><circle cx="248.2" cy="318.3" r="1.7" fill="#5CC8F5" opacity="0.3"/><circle cx="919.8" cy="203.9" r="1" fill="#5CC8F5" opacity="0.8"/><circle cx="223.4" cy="267.2" r="1.3" fill="#5CC8F5" opacity="0.4"/><circle cx="536.5" cy="436.2" r="1.5" fill="#5CC8F5" opacity="0.4"/><circle cx="725.2" cy="452.1" r="0.9" fill="#5CC8F5" opacity="0.2"/><circle cx="426.9" cy="563.9" r="1.7" fill="#EE2424" opacity="0.6"/><circle cx="877.6" cy="227.6" r="1.4" fill="#5CC8F5" opacity="0.5"/><circle cx="93.3" cy="602" r="0.9" fill="#EE2424" opacity="0.6"/><circle cx="1004.5" cy="642" r="1.9" fill="#EE2424" opacity="0.7"/><circle cx="385.9" cy="56.5" r="1.5" fill="#5CC8F5" opacity="0.3"/><circle cx="475.2" cy="657.2" r="1.8" fill="#5CC8F5" opacity="0.5"/><g filter="url(#cover-podcast-glow)"><rect x="117" y="331.5" width="6" height="12" rx="3" fill="#5CC8F5" opacity="0.4"/><rect x="134.5" y="326" width="6" height="23.1" rx="3" fill="#5CC8F5" opacity="0.4"/><rect x="151.9" y="317.7" width="6" height="39.5" rx="3" fill="#5CC8F5" opacity="0.4"/><rect x="169.4" y="308.6" width="6" height="57.7" rx="3" fill="#5CC8F5" opacity="0.4"/><rect x="186.8" y="301" width="6" height="72.9" rx="3" fill="#5CC8F5" opacity="0.5"/><rect x="204.3" y="297.2" width="6" height="80.6" rx="3" fill="#5CC8F5" opacity="0.5"/><rect x="221.7" y="298.5" width="6" height="78.1" rx="3" fill="#5CC8F5" opacity="0.5"/><rect x="239.2" y="304.7" width="6" height="65.5" rx="3" fill="#5CC8F5" opacity="0.4"/><rect x="256.6" y="314.3" width="6" height="46.4" rx="3" fill="#5CC8F5" opacity="0.4"/><rect x="274.1" y="324.2" width="6" height="26.7" rx="3" fill="#5CC8F5" opacity="0.4"/><rect x="291.5" y="330.6" width="6" height="13.7" rx="3" fill="#5CC8F5" opacity="0.4"/><rect x="309" y="330.3" width="6" height="14.4" rx="3" fill="#5CC8F5" opacity="0.4"/><rect x="326.5" y="321" width="6" height="33" rx="3" fill="#5CC8F5" opacity="0.4"/><rect x="343.9" y="302.4" width="6" height="70.2" rx="3" fill="#5CC8F5" opacity="0.5"/><rect x="361.4" y="276.6" width="6" height="121.8" rx="3" fill="#5CC8F5" opacity="0.5"/><rect x="378.8" y="247.6" width="6" height="179.8" rx="3" fill="#5CC8F5" opacity="0.6"/><rect x="396.3" y="220.8" width="6" height="233.4" rx="3" fill="#5CC8F5" opacity="0.7"/><rect x="413.7" y="201.7" width="6" height="271.6" rx="3" fill="#5CC8F5" opacity="0.8"/><rect x="431.2" y="194.7" width="6" height="285.5" rx="3" fill="#5CC8F5" opacity="0.8"/><rect x="448.6" y="202" width="6" height="271.1" rx="3" fill="#5CC8F5" opacity="0.8"/><rect x="466.1" y="222.6" width="6" height="229.9" rx="3" fill="#5CC8F5" opacity="0.7"/><rect x="483.5" y="252.5" width="6" height="169.9" rx="3" fill="#5CC8F5" opacity="0.6"/><rect x="501" y="285.5" width="6" height="104.1" rx="3" fill="#5CC8F5" opacity="0.5"/><rect x="518.5" y="313.6" width="6" height="47.7" rx="3" fill="#5CC8F5" opacity="0.4"/><rect x="535.9" y="329.7" width="6" height="15.5" rx="3" fill="#5CC8F5" opacity="0.4"/><rect x="553.4" y="328.4" width="6" height="18.2" rx="3" fill="#5CC8F5" opacity="0.4"/><rect x="570.8" y="307.6" width="6" height="59.7" rx="3" fill="#EE2424" opacity="0.95"/><rect x="588.3" y="269.5" width="6" height="136" rx="3" fill="#EE2424" opacity="0.95"/><rect x="605.7" y="219.9" width="6" height="235.3" rx="3" fill="#EE2424" opacity="0.95"/><rect x="623.2" y="178.9" width="6" height="317.1" rx="3" fill="#EE2424" opacity="0.95"/><rect x="640.6" y="150.6" width="6" height="373.8" rx="3" fill="#EE2424" opacity="0.95"/><rect x="658.1" y="140.3" width="6" height="394.3" rx="3" fill="#5CC8F5" opacity="0.9"/><rect x="675.5" y="149.5" width="6" height="375.9" rx="3" fill="#5CC8F5" opacity="0.9"/><rect x="693" y="175.7" width="6" height="323.7" rx="3" fill="#5CC8F5" opacity="0.8"/><rect x="710.5" y="213" width="6" height="249" rx="3" fill="#5CC8F5" opacity="0.7"/><rect x="727.9" y="253.9" width="6" height="167.2" rx="3" fill="#5CC8F5" opacity="0.6"/><rect x="745.4" y="290.8" width="6" height="93.4" rx="3" fill="#5CC8F5" opacity="0.5"/><rect x="762.8" y="317.5" width="6" height="40" rx="3" fill="#5CC8F5" opacity="0.4"/><rect x="780.3" y="330.4" width="6" height="14.2" rx="3" fill="#5CC8F5" opacity="0.4"/><rect x="797.7" y="329.1" width="6" height="16.8" rx="3" fill="#5CC8F5" opacity="0.4"/><rect x="815.2" y="316.1" width="6" height="42.7" rx="3" fill="#5CC8F5" opacity="0.4"/><rect x="832.6" y="296.1" width="6" height="82.7" rx="3" fill="#5CC8F5" opacity="0.5"/><rect x="850.1" y="274.8" width="6" height="125.4" rx="3" fill="#5CC8F5" opacity="0.5"/><rect x="867.5" y="257.3" width="6" height="160.4" rx="3" fill="#5CC8F5" opacity="0.6"/><rect x="885" y="247.6" width="6" height="179.9" rx="3" fill="#5CC8F5" opacity="0.6"/><rect x="902.5" y="247.3" width="6" height="180.5" rx="3" fill="#5CC8F5" opacity="0.6"/><rect x="919.9" y="255.9" width="6" height="163.3" rx="3" fill="#5CC8F5" opacity="0.6"/><rect x="937.4" y="270.9" width="6" height="133.2" rx="3" fill="#5CC8F5" opacity="0.5"/><rect x="954.8" y="288.9" width="6" height="97.2" rx="3" fill="#5CC8F5" opacity="0.5"/><rect x="972.3" y="306.1" width="6" height="62.8" rx="3" fill="#5CC8F5" opacity="0.4"/><rect x="989.7" y="319.6" width="6" height="35.7" rx="3" fill="#5CC8F5" opacity="0.4"/><rect x="1007.2" y="328" width="6" height="19" rx="3" fill="#5CC8F5" opacity="0.4"/><rect x="1024.6" y="331.3" width="6" height="12.4" rx="3" fill="#5CC8F5" opacity="0.4"/><rect x="1042.1" y="331" width="6" height="13" rx="3" fill="#5CC8F5" opacity="0.4"/><rect x="1059.5" y="329.5" width="6" height="16" rx="3" fill="#5CC8F5" opacity="0.4"/><rect x="1077" y="329.1" width="6" height="16.8" rx="3" fill="#5CC8F5" opacity="0.4"/></g><ellipse cx="600" cy="337.5" rx="90" ry="90" fill="none" stroke="#DDF1FC" stroke-opacity="0.35" stroke-width="1.4"/><ellipse cx="600" cy="337.5" rx="150" ry="150" fill="none" stroke="#5CC8F5" stroke-opacity="0.2" stroke-width="1.4" stroke-dasharray="3 8"/></svg>
