<svg xmlns="http://www.w3.org/2000/svg" viewBox="0 0 1200 900" width="1200" height="900" role="img" aria-label="A glowing DNA helix rising from laboratory data">
  <defs>
    <radialGradient id="pharma-biotech-bg" cx="50%" cy="42%" r="75%">
      <stop offset="0" stop-color="#12284A"/>
      <stop offset="0.55" stop-color="#0D192D"/>
      <stop offset="1" stop-color="#060D1A"/>
    </radialGradient>
    <radialGradient id="pharma-biotech-fade" cx="50%" cy="50%" r="50%">
      <stop offset="0" stop-color="#fff" stop-opacity="1"/>
      <stop offset="0.7" stop-color="#fff" stop-opacity="0.35"/>
      <stop offset="1" stop-color="#fff" stop-opacity="0"/>
    </radialGradient>
    <mask id="pharma-biotech-floor"><rect width="100%" height="100%" fill="url(#pharma-biotech-fade)"/></mask>
    <linearGradient id="pharma-biotech-glass" x1="0" y1="0" x2="0" y2="1">
      <stop offset="0" stop-color="#5CC8F5" stop-opacity="0.34"/>
      <stop offset="1" stop-color="#0088CF" stop-opacity="0.06"/>
    </linearGradient>
    <linearGradient id="pharma-biotech-glassR" x1="0" y1="0" x2="0" y2="1">
      <stop offset="0" stop-color="#EE2424" stop-opacity="0.55"/>
      <stop offset="1" stop-color="#EE2424" stop-opacity="0.08"/>
    </linearGradient>
    <linearGradient id="pharma-biotech-beam" x1="0" y1="0" x2="0" y2="1">
      <stop offset="0" stop-color="#5CC8F5" stop-opacity="0.55"/>
      <stop offset="1" stop-color="#5CC8F5" stop-opacity="0"/>
    </linearGradient>
    <linearGradient id="pharma-biotech-beamR" x1="0" y1="0" x2="0" y2="1">
      <stop offset="0" stop-color="#EE2424" stop-opacity="0.5"/>
      <stop offset="1" stop-color="#EE2424" stop-opacity="0"/>
    </linearGradient>
    <filter id="pharma-biotech-glow" x="-50%" y="-50%" width="200%" height="200%">
      <feGaussianBlur stdDeviation="6" result="b"/>
      <feMerge><feMergeNode in="b"/><feMergeNode in="SourceGraphic"/></feMerge>
    </filter>
    <filter id="pharma-biotech-haze" x="-50%" y="-50%" width="200%" height="200%"><feGaussianBlur stdDeviation="40"/></filter>
  </defs><rect width="1200" height="900" fill="url(#pharma-biotech-bg)"/><circle cx="624" cy="405" r="260" fill="#0088CF" opacity="0.4" filter="url(#pharma-biotech-haze)"/><circle cx="624" cy="270" r="90" fill="#EE2424" opacity="0.25" filter="url(#pharma-biotech-haze)"/><circle cx="613.9" cy="477" r="1.7" fill="#5CC8F5" opacity="0.7"/><circle cx="645.6" cy="72" r="1.6" fill="#5CC8F5" opacity="0.5"/><circle cx="576.1" cy="759.2" r="1.4" fill="#5CC8F5" opacity="0.6"/><circle cx="193" cy="160.7" r="1.1" fill="#5CC8F5" opacity="0.4"/><circle cx="699" cy="114.7" r="1.7" fill="#5CC8F5" opacity="0.5"/><circle cx="1013.1" cy="724.8" r="2" fill="#5CC8F5" opacity="0.6"/><circle cx="302" cy="50.6" r="1.9" fill="#EE2424" opacity="0.4"/><circle cx="175.8" cy="669.2" r="1.2" fill="#5CC8F5" opacity="0.5"/><circle cx="1014.6" cy="128.9" r="2.1" fill="#5CC8F5" opacity="0.4"/><circle cx="30.5" cy="69" r="2.1" fill="#5CC8F5" opacity="0.5"/><circle cx="324.5" cy="451.8" r="1.9" fill="#5CC8F5" opacity="0.6"/><circle cx="54.1" cy="400.1" r="1.7" fill="#EE2424" opacity="0.5"/><circle cx="559.4" cy="317.6" r="0.7" fill="#5CC8F5" opacity="0.5"/><circle cx="911.4" cy="270.3" r="1.6" fill="#5CC8F5" opacity="0.7"/><circle cx="192.2" cy="106.7" r="1.7" fill="#5CC8F5" opacity="0.3"/><circle cx="443" cy="339.9" r="2.3" fill="#5CC8F5" opacity="0.6"/><circle cx="493.1" cy="826.9" r="1.7" fill="#5CC8F5" opacity="0.4"/><circle cx="617.4" cy="7.7" r="2.2" fill="#5CC8F5" opacity="0.4"/><circle cx="148.2" cy="71.8" r="1.9" fill="#5CC8F5" opacity="0.5"/><circle cx="124" cy="503.7" r="1.7" fill="#5CC8F5" opacity="0.8"/><circle cx="717.8" cy="543.4" r="1.6" fill="#5CC8F5" opacity="0.3"/><circle cx="782.1" cy="585.7" r="2.4" fill="#5CC8F5" opacity="0.3"/><circle cx="165" cy="582.2" r="2.3" fill="#5CC8F5" opacity="0.8"/><circle cx="451.8" cy="684.6" r="1.8" fill="#5CC8F5" opacity="0.4"/><circle cx="796.8" cy="443.1" r="1.7" fill="#5CC8F5" opacity="0.6"/><circle cx="377.9" cy="82.8" r="1.6" fill="#5CC8F5" opacity="0.3"/><circle cx="980" cy="841.6" r="2" fill="#5CC8F5" opacity="0.5"/><circle cx="1020.5" cy="512.3" r="1.9" fill="#5CC8F5" opacity="0.2"/><circle cx="595.3" cy="442.1" r="0.9" fill="#5CC8F5" opacity="0.2"/><circle cx="101.7" cy="897.8" r="1.7" fill="#5CC8F5" opacity="0.7"/><circle cx="1102.4" cy="884.1" r="0.7" fill="#5CC8F5" opacity="0.6"/><circle cx="473.9" cy="375.6" r="1.6" fill="#5CC8F5" opacity="0.2"/><circle cx="555.1" cy="243.4" r="1.4" fill="#5CC8F5" opacity="0.4"/><circle cx="405.8" cy="529.9" r="1.3" fill="#EE2424" opacity="0.4"/><circle cx="534.7" cy="220.7" r="1.8" fill="#5CC8F5" opacity="0.5"/><circle cx="772.2" cy="2.5" r="0.8" fill="#5CC8F5" opacity="0.7"/><circle cx="162.8" cy="735.2" r="0.9" fill="#5CC8F5" opacity="0.7"/><circle cx="886.7" cy="731.2" r="0.8" fill="#5CC8F5" opacity="0.6"/><circle cx="258.9" cy="101.6" r="1.2" fill="#5CC8F5" opacity="0.7"/><circle cx="766.8" cy="648.6" r="1.6" fill="#5CC8F5" opacity="0.6"/><circle cx="460.5" cy="687.5" r="1" fill="#5CC8F5" opacity="0.3"/><circle cx="750.4" cy="7.6" r="1.6" fill="#EE2424" opacity="0.7"/><circle cx="623.7" cy="788.5" r="0.7" fill="#5CC8F5" opacity="0.7"/><circle cx="303.3" cy="884.5" r="0.8" fill="#5CC8F5" opacity="0.5"/><circle cx="1112.4" cy="891.4" r="1.3" fill="#5CC8F5" opacity="0.5"/><circle cx="118.6" cy="168.9" r="0.8" fill="#5CC8F5" opacity="0.8"/><circle cx="660.3" cy="514.1" r="1" fill="#EE2424" opacity="0.2"/><circle cx="1003.2" cy="244.4" r="0.7" fill="#5CC8F5" opacity="0.4"/><circle cx="168.2" cy="334.9" r="0.8" fill="#5CC8F5" opacity="0.5"/><circle cx="553.1" cy="893.7" r="1.2" fill="#5CC8F5" opacity="0.5"/><circle cx="310.5" cy="453.4" r="2.3" fill="#5CC8F5" opacity="0.5"/><circle cx="488.3" cy="114.7" r="1" fill="#5CC8F5" opacity="0.2"/><circle cx="110.6" cy="667.1" r="0.9" fill="#5CC8F5" opacity="0.5"/><circle cx="939.5" cy="540.9" r="1.7" fill="#5CC8F5" opacity="0.4"/><circle cx="909.2" cy="830" r="1.2" fill="#5CC8F5" opacity="0.3"/><circle cx="157.3" cy="470.6" r="1.8" fill="#5CC8F5" opacity="0.8"/><circle cx="1094.3" cy="120.3" r="2.2" fill="#5CC8F5" opacity="0.6"/><circle cx="684.4" cy="705.4" r="2.3" fill="#5CC8F5" opacity="0.3"/><circle cx="384.5" cy="643.4" r="1.9" fill="#5CC8F5" opacity="0.6"/><circle cx="146.9" cy="385.2" r="2" fill="#5CC8F5" opacity="0.8"/><circle cx="889.3" cy="110.2" r="0.8" fill="#5CC8F5" opacity="0.2"/><circle cx="1131.9" cy="226.7" r="1.8" fill="#5CC8F5" opacity="0.4"/><circle cx="859.1" cy="679.5" r="1.7" fill="#EE2424" opacity="0.5"/><circle cx="969.7" cy="493.2" r="1.3" fill="#5CC8F5" opacity="0.7"/><circle cx="119.6" cy="491.4" r="1.4" fill="#5CC8F5" opacity="0.5"/><circle cx="228.1" cy="603" r="1.1" fill="#5CC8F5" opacity="0.3"/><circle cx="1064.3" cy="359.5" r="0.8" fill="#5CC8F5" opacity="0.5"/><circle cx="240.4" cy="57.5" r="0.7" fill="#5CC8F5" opacity="0.7"/><circle cx="501.8" cy="814.9" r="1.2" fill="#5CC8F5" opacity="0.6"/><circle cx="8.3" cy="332.3" r="1.6" fill="#5CC8F5" opacity="0.6"/><circle cx="752.5" cy="859.8" r="1.7" fill="#5CC8F5" opacity="0.3"/><circle cx="155.8" cy="195.8" r="2.1" fill="#5CC8F5" opacity="0.3"/><circle cx="79" cy="752.9" r="1.9" fill="#5CC8F5" opacity="0.4"/><circle cx="14.7" cy="203.7" r="2" fill="#5CC8F5" opacity="0.2"/><circle cx="52.8" cy="27.2" r="1.3" fill="#5CC8F5" opacity="0.2"/><circle cx="1041" cy="820.6" r="1" fill="#5CC8F5" opacity="0.3"/><circle cx="187.1" cy="29.3" r="1.3" fill="#5CC8F5" opacity="0.7"/><circle cx="474.4" cy="771.9" r="1.4" fill="#5CC8F5" opacity="0.6"/><circle cx="783.7" cy="597.4" r="1.3" fill="#5CC8F5" opacity="0.5"/><circle cx="486" cy="379.3" r="2.3" fill="#5CC8F5" opacity="0.6"/><circle cx="78.5" cy="570.3" r="0.8" fill="#5CC8F5" opacity="0.3"/><circle cx="967.8" cy="656.6" r="1" fill="#EE2424" opacity="0.4"/><circle cx="428.5" cy="189.7" r="0.6" fill="#5CC8F5" opacity="0.3"/><circle cx="617.3" cy="771" r="2.2" fill="#5CC8F5" opacity="0.7"/><circle cx="479.4" cy="499.8" r="1.2" fill="#5CC8F5" opacity="0.3"/><circle cx="34.3" cy="235.9" r="0.7" fill="#5CC8F5" opacity="0.6"/><circle cx="558.7" cy="222.3" r="1.5" fill="#5CC8F5" opacity="0.7"/><circle cx="1117.4" cy="172.9" r="1.4" fill="#5CC8F5" opacity="0.6"/><circle cx="376.6" cy="142" r="1.8" fill="#5CC8F5" opacity="0.3"/><circle cx="790.7" cy="176.3" r="1" fill="#5CC8F5" opacity="0.2"/><g mask="url(#pharma-biotech-floor)"><path d="M600 270L-23.5 630M600 270L1223.5 630M634.6 290L11.1 650M565.4 290L1188.9 650M669.3 310L45.8 670M530.7 310L1154.2 670M703.9 330L80.4 690M496.1 330L1119.6 690M738.6 350L115 710M461.4 350L1085 710M773.2 370L149.7 730M426.8 370L1050.3 730M807.8 390L184.3 750M392.2 390L1015.7 750M842.5 410L219 770M357.5 410L981 770M877.1 430L253.6 790M322.9 430L946.4 790M911.8 450L288.2 810M288.2 450L911.8 810M946.4 470L322.9 830M253.6 470L877.1 830M981 490L357.5 850M219 490L842.5 850M1015.7 510L392.2 870M184.3 510L807.8 870M1050.3 530L426.8 890M149.7 530L773.2 890M1085 550L461.4 910M115 550L738.6 910M1119.6 570L496.1 930M80.4 570L703.9 930M1154.2 590L530.7 950M45.8 590L669.3 950M1188.9 610L565.4 970M11.1 610L634.6 970M1223.5 630L600 990M-23.5 630L600 990" stroke="#0088CF" stroke-width="1" opacity="0.45" fill="none"/></g><g>
    <polygon points="201.6,530 279.6,575 279.6,549 201.6,504" fill="url(#pharma-biotech-glass)" stroke="#5CC8F5" stroke-opacity="0.55" stroke-width="1.2"/>
    <polygon points="340.2,540 279.6,575 279.6,549 340.2,514" fill="url(#pharma-biotech-glass)" opacity="0.7" stroke="#5CC8F5" stroke-opacity="0.55" stroke-width="1.2"/>
    <polygon points="262.3,469 340.2,514 279.6,549 201.6,504" fill="#5CC8F5" fill-opacity="0.16" stroke="#5CC8F5" stroke-width="1.4"/>
  </g><g>
    <polygon points="963.7,600 1033,640 1033,622 963.7,582" fill="url(#pharma-biotech-glass)" stroke="#5CC8F5" stroke-opacity="0.55" stroke-width="1.2"/>
    <polygon points="1110.9,595 1033,640 1033,622 1110.9,577" fill="url(#pharma-biotech-glass)" opacity="0.7" stroke="#5CC8F5" stroke-opacity="0.55" stroke-width="1.2"/>
    <polygon points="1041.7,537 1110.9,577 1033,622 963.7,582" fill="#5CC8F5" fill-opacity="0.16" stroke="#5CC8F5" stroke-width="1.4"/>
  </g><g>
    <polygon points="816.5,755 868.5,785 868.5,741 816.5,711" fill="url(#pharma-biotech-glassR)" stroke="#FF6A5C" stroke-opacity="0.55" stroke-width="1.2"/>
    <polygon points="920.4,755 868.5,785 868.5,741 920.4,711" fill="url(#pharma-biotech-glassR)" opacity="0.7" stroke="#FF6A5C" stroke-opacity="0.55" stroke-width="1.2"/>
    <polygon points="868.5,681 920.4,711 868.5,741 816.5,711" fill="#EE2424" fill-opacity="0.35" stroke="#FF6A5C" stroke-width="1.4"/>
  </g><g><polygon points="253.6,620 348.9,675 279.6,715 184.3,660" fill="#5CC8F5" fill-opacity="0.1" stroke="#5CC8F5" stroke-width="1.4" stroke-opacity="0.85"/><path d="M251.2 634.6L304.6 665.5" stroke="#DDF1FC" stroke-opacity="0.9" stroke-width="3" stroke-linecap="round"/><path d="M237.3 642.6L271 662.1" stroke="#5CC8F5" stroke-opacity="0.55" stroke-width="2" stroke-linecap="round"/><path d="M223.5 650.6L269.3 677" stroke="#5CC8F5" stroke-opacity="0.55" stroke-width="2" stroke-linecap="round"/><path d="M209.6 658.6L244.4 678.7" stroke="#5CC8F5" stroke-opacity="0.55" stroke-width="2" stroke-linecap="round"/></g><ellipse cx="624" cy="706" rx="240" ry="66" fill="none" stroke="#5CC8F5" stroke-opacity="0.5" stroke-width="1.4"/><ellipse cx="624" cy="706" rx="324" ry="90" fill="none" stroke="#0088CF" stroke-opacity="0.35" stroke-width="1.4" stroke-dasharray="4 8"/><path d="M624 702L624 702" stroke="#EE2424" stroke-opacity="0.35" stroke-width="1.6" fill="none"/><path d="M727.3 664.9L520.7 664.9" stroke="#5CC8F5" stroke-opacity="0.35" stroke-width="1.6" fill="none"/><path d="M767.9 627.8L480.1 627.8" stroke="#5CC8F5" stroke-opacity="0.35" stroke-width="1.6" fill="none"/><path d="M721.4 590.7L526.6 590.7" stroke="#5CC8F5" stroke-opacity="0.35" stroke-width="1.6" fill="none"/><path d="M615.8 553.6L632.2 553.6" stroke="#EE2424" stroke-opacity="0.35" stroke-width="1.6" fill="none"/><path d="M515.2 516.5L732.8 516.5" stroke="#5CC8F5" stroke-opacity="0.35" stroke-width="1.6" fill="none"/><path d="M480.5 479.5L767.5 479.5" stroke="#5CC8F5" stroke-opacity="0.35" stroke-width="1.6" fill="none"/><path d="M532.8 442.4L715.2 442.4" stroke="#5CC8F5" stroke-opacity="0.35" stroke-width="1.6" fill="none"/><path d="M640.4 405.3L607.6 405.3" stroke="#EE2424" stroke-opacity="0.35" stroke-width="1.6" fill="none"/><path d="M738 368.2L510 368.2" stroke="#5CC8F5" stroke-opacity="0.35" stroke-width="1.6" fill="none"/><path d="M766.5 331.1L481.5 331.1" stroke="#5CC8F5" stroke-opacity="0.35" stroke-width="1.6" fill="none"/><path d="M708.6 294L539.4 294" stroke="#5CC8F5" stroke-opacity="0.35" stroke-width="1.6" fill="none"/><path d="M599.4 256.9L648.6 256.9" stroke="#EE2424" stroke-opacity="0.35" stroke-width="1.6" fill="none"/><path d="M505.1 219.8L742.9 219.8" stroke="#5CC8F5" stroke-opacity="0.35" stroke-width="1.6" fill="none"/><path d="M482.9 182.7L765.1 182.7" stroke="#5CC8F5" stroke-opacity="0.35" stroke-width="1.6" fill="none"/><path d="M546.1 145.6L701.9 145.6" stroke="#5CC8F5" stroke-opacity="0.35" stroke-width="1.6" fill="none"/><path d="M656.6 108.5L591.4 108.5" stroke="#EE2424" stroke-opacity="0.35" stroke-width="1.6" fill="none"/><g opacity="1" filter="url(#pharma-biotech-glow)"><circle cx="624" cy="702" r="14.3" fill="#5CC8F5" opacity="0.18"/><circle cx="624" cy="702" r="6.5" fill="#5CC8F5"/></g><g opacity="0.5" filter="url(#pharma-biotech-glow)"><circle cx="624" cy="702" r="5.5" fill="#0088CF" opacity="0.18"/><circle cx="624" cy="702" r="2.5" fill="#0088CF"/></g><g opacity="1" filter="url(#pharma-biotech-glow)"><circle cx="680.1" cy="683.5" r="14" fill="#5CC8F5" opacity="0.18"/><circle cx="680.1" cy="683.5" r="6.3" fill="#5CC8F5"/></g><g opacity="0.5" filter="url(#pharma-biotech-glow)"><circle cx="567.9" cy="683.5" r="5.8" fill="#0088CF" opacity="0.18"/><circle cx="567.9" cy="683.5" r="2.7" fill="#0088CF"/></g><g opacity="0.9" filter="url(#pharma-biotech-glow)"><circle cx="727.3" cy="664.9" r="13" fill="#5CC8F5" opacity="0.18"/><circle cx="727.3" cy="664.9" r="5.9" fill="#5CC8F5"/></g><g opacity="0.5" filter="url(#pharma-biotech-glow)"><circle cx="520.7" cy="664.9" r="6.8" fill="#0088CF" opacity="0.18"/><circle cx="520.7" cy="664.9" r="3.1" fill="#0088CF"/></g><g opacity="0.8" filter="url(#pharma-biotech-glow)"><circle cx="758.2" cy="646.4" r="11.5" fill="#5CC8F5" opacity="0.18"/><circle cx="758.2" cy="646.4" r="5.2" fill="#5CC8F5"/></g><g opacity="0.6" filter="url(#pharma-biotech-glow)"><circle cx="489.8" cy="646.4" r="8.3" fill="#0088CF" opacity="0.18"/><circle cx="489.8" cy="646.4" r="3.8" fill="#0088CF"/></g><g opacity="0.7" filter="url(#pharma-biotech-glow)"><circle cx="767.9" cy="627.8" r="9.8" fill="#5CC8F5" opacity="0.18"/><circle cx="767.9" cy="627.8" r="4.4" fill="#5CC8F5"/></g><g opacity="0.7" filter="url(#pharma-biotech-glow)"><circle cx="480.1" cy="627.8" r="10" fill="#0088CF" opacity="0.18"/><circle cx="480.1" cy="627.8" r="4.6" fill="#0088CF"/></g><g opacity="0.6" filter="url(#pharma-biotech-glow)"><circle cx="755" cy="609.3" r="8.1" fill="#EE2424" opacity="0.18"/><circle cx="755" cy="609.3" r="3.7" fill="#EE2424"/></g><g opacity="0.8" filter="url(#pharma-biotech-glow)"><circle cx="493" cy="609.3" r="11.7" fill="#0088CF" opacity="0.18"/><circle cx="493" cy="609.3" r="5.3" fill="#0088CF"/></g><g opacity="0.5" filter="url(#pharma-biotech-glow)"><circle cx="721.4" cy="590.7" r="6.7" fill="#5CC8F5" opacity="0.18"/><circle cx="721.4" cy="590.7" r="3" fill="#5CC8F5"/></g><g opacity="0.9" filter="url(#pharma-biotech-glow)"><circle cx="526.6" cy="590.7" r="13.1" fill="#0088CF" opacity="0.18"/><circle cx="526.6" cy="590.7" r="6" fill="#0088CF"/></g><g opacity="0.5" filter="url(#pharma-biotech-glow)"><circle cx="672.4" cy="572.2" r="5.8" fill="#5CC8F5" opacity="0.18"/><circle cx="672.4" cy="572.2" r="2.6" fill="#5CC8F5"/></g><g opacity="1" filter="url(#pharma-biotech-glow)"><circle cx="575.6" cy="572.2" r="14" fill="#0088CF" opacity="0.18"/><circle cx="575.6" cy="572.2" r="6.4" fill="#0088CF"/></g><g opacity="0.5" filter="url(#pharma-biotech-glow)"><circle cx="615.8" cy="553.6" r="5.5" fill="#5CC8F5" opacity="0.18"/><circle cx="615.8" cy="553.6" r="2.5" fill="#5CC8F5"/></g><g opacity="1" filter="url(#pharma-biotech-glow)"><circle cx="632.2" cy="553.6" r="14.3" fill="#0088CF" opacity="0.18"/><circle cx="632.2" cy="553.6" r="6.5" fill="#0088CF"/></g><g opacity="0.5" filter="url(#pharma-biotech-glow)"><circle cx="560.5" cy="535.1" r="6" fill="#5CC8F5" opacity="0.18"/><circle cx="560.5" cy="535.1" r="2.7" fill="#5CC8F5"/></g><g opacity="1" filter="url(#pharma-biotech-glow)"><circle cx="687.5" cy="535.1" r="13.8" fill="#0088CF" opacity="0.18"/><circle cx="687.5" cy="535.1" r="6.3" fill="#0088CF"/></g><g opacity="0.5" filter="url(#pharma-biotech-glow)"><circle cx="515.2" cy="516.5" r="7" fill="#5CC8F5" opacity="0.18"/><circle cx="515.2" cy="516.5" r="3.2" fill="#5CC8F5"/></g><g opacity="0.9" filter="url(#pharma-biotech-glow)"><circle cx="732.8" cy="516.5" r="12.8" fill="#0088CF" opacity="0.18"/><circle cx="732.8" cy="516.5" r="5.8" fill="#0088CF"/></g><g opacity="0.6" filter="url(#pharma-biotech-glow)"><circle cx="487" cy="498" r="8.5" fill="#5CC8F5" opacity="0.18"/><circle cx="487" cy="498" r="3.9" fill="#5CC8F5"/></g><g opacity="0.8" filter="url(#pharma-biotech-glow)"><circle cx="761" cy="498" r="11.3" fill="#0088CF" opacity="0.18"/><circle cx="761" cy="498" r="5.1" fill="#0088CF"/></g><g opacity="0.7" filter="url(#pharma-biotech-glow)"><circle cx="480.5" cy="479.5" r="10.3" fill="#5CC8F5" opacity="0.18"/><circle cx="480.5" cy="479.5" r="4.7" fill="#5CC8F5"/></g><g opacity="0.7" filter="url(#pharma-biotech-glow)"><circle cx="767.5" cy="479.5" r="9.5" fill="#0088CF" opacity="0.18"/><circle cx="767.5" cy="479.5" r="4.3" fill="#0088CF"/></g><g opacity="0.9" filter="url(#pharma-biotech-glow)"><circle cx="496.6" cy="460.9" r="12" fill="#5CC8F5" opacity="0.18"/><circle cx="496.6" cy="460.9" r="5.4" fill="#5CC8F5"/></g><g opacity="0.6" filter="url(#pharma-biotech-glow)"><circle cx="751.4" cy="460.9" r="7.8" fill="#0088CF" opacity="0.18"/><circle cx="751.4" cy="460.9" r="3.6" fill="#0088CF"/></g><g opacity="0.9" filter="url(#pharma-biotech-glow)"><circle cx="532.8" cy="442.4" r="13.3" fill="#5CC8F5" opacity="0.18"/><circle cx="532.8" cy="442.4" r="6" fill="#5CC8F5"/></g><g opacity="0.5" filter="url(#pharma-biotech-glow)"><circle cx="715.2" cy="442.4" r="6.5" fill="#0088CF" opacity="0.18"/><circle cx="715.2" cy="442.4" r="3" fill="#0088CF"/></g><g opacity="1" filter="url(#pharma-biotech-glow)"><circle cx="583.4" cy="423.8" r="14.1" fill="#5CC8F5" opacity="0.18"/><circle cx="583.4" cy="423.8" r="6.4" fill="#5CC8F5"/></g><g opacity="0.5" filter="url(#pharma-biotech-glow)"><circle cx="664.6" cy="423.8" r="5.7" fill="#0088CF" opacity="0.18"/><circle cx="664.6" cy="423.8" r="2.6" fill="#0088CF"/></g><g opacity="1" filter="url(#pharma-biotech-glow)"><circle cx="640.4" cy="405.3" r="14.3" fill="#EE2424" opacity="0.18"/><circle cx="640.4" cy="405.3" r="6.5" fill="#EE2424"/></g><g opacity="0.5" filter="url(#pharma-biotech-glow)"><circle cx="607.6" cy="405.3" r="5.5" fill="#0088CF" opacity="0.18"/><circle cx="607.6" cy="405.3" r="2.5" fill="#0088CF"/></g><g opacity="1" filter="url(#pharma-biotech-glow)"><circle cx="694.8" cy="386.7" r="13.7" fill="#5CC8F5" opacity="0.18"/><circle cx="694.8" cy="386.7" r="6.2" fill="#5CC8F5"/></g><g opacity="0.5" filter="url(#pharma-biotech-glow)"><circle cx="553.2" cy="386.7" r="6.1" fill="#0088CF" opacity="0.18"/><circle cx="553.2" cy="386.7" r="2.8" fill="#0088CF"/></g><g opacity="0.9" filter="url(#pharma-biotech-glow)"><circle cx="738" cy="368.2" r="12.6" fill="#5CC8F5" opacity="0.18"/><circle cx="738" cy="368.2" r="5.7" fill="#5CC8F5"/></g><g opacity="0.6" filter="url(#pharma-biotech-glow)"><circle cx="510" cy="368.2" r="7.2" fill="#0088CF" opacity="0.18"/><circle cx="510" cy="368.2" r="3.3" fill="#0088CF"/></g><g opacity="0.8" filter="url(#pharma-biotech-glow)"><circle cx="763.3" cy="349.6" r="11" fill="#5CC8F5" opacity="0.18"/><circle cx="763.3" cy="349.6" r="5" fill="#5CC8F5"/></g><g opacity="0.7" filter="url(#pharma-biotech-glow)"><circle cx="484.7" cy="349.6" r="8.8" fill="#0088CF" opacity="0.18"/><circle cx="484.7" cy="349.6" r="4" fill="#0088CF"/></g><g opacity="0.7" filter="url(#pharma-biotech-glow)"><circle cx="766.5" cy="331.1" r="9.3" fill="#5CC8F5" opacity="0.18"/><circle cx="766.5" cy="331.1" r="4.2" fill="#5CC8F5"/></g><g opacity="0.8" filter="url(#pharma-biotech-glow)"><circle cx="481.5" cy="331.1" r="10.5" fill="#0088CF" opacity="0.18"/><circle cx="481.5" cy="331.1" r="4.8" fill="#0088CF"/></g><g opacity="0.6" filter="url(#pharma-biotech-glow)"><circle cx="747.3" cy="312.5" r="7.6" fill="#5CC8F5" opacity="0.18"/><circle cx="747.3" cy="312.5" r="3.5" fill="#5CC8F5"/></g><g opacity="0.9" filter="url(#pharma-biotech-glow)"><circle cx="500.7" cy="312.5" r="12.2" fill="#0088CF" opacity="0.18"/><circle cx="500.7" cy="312.5" r="5.5" fill="#0088CF"/></g><g opacity="0.5" filter="url(#pharma-biotech-glow)"><circle cx="708.6" cy="294" r="6.3" fill="#5CC8F5" opacity="0.18"/><circle cx="708.6" cy="294" r="2.9" fill="#5CC8F5"/></g><g opacity="0.9" filter="url(#pharma-biotech-glow)"><circle cx="539.4" cy="294" r="13.5" fill="#0088CF" opacity="0.18"/><circle cx="539.4" cy="294" r="6.1" fill="#0088CF"/></g><g opacity="0.5" filter="url(#pharma-biotech-glow)"><circle cx="656.6" cy="275.5" r="5.6" fill="#5CC8F5" opacity="0.18"/><circle cx="656.6" cy="275.5" r="2.6" fill="#5CC8F5"/></g><g opacity="1" filter="url(#pharma-biotech-glow)"><circle cx="591.4" cy="275.5" r="14.2" fill="#0088CF" opacity="0.18"/><circle cx="591.4" cy="275.5" r="6.4" fill="#0088CF"/></g><g opacity="0.5" filter="url(#pharma-biotech-glow)"><circle cx="599.4" cy="256.9" r="5.6" fill="#5CC8F5" opacity="0.18"/><circle cx="599.4" cy="256.9" r="2.5" fill="#5CC8F5"/></g><g opacity="1" filter="url(#pharma-biotech-glow)"><circle cx="648.6" cy="256.9" r="14.2" fill="#0088CF" opacity="0.18"/><circle cx="648.6" cy="256.9" r="6.5" fill="#0088CF"/></g><g opacity="0.5" filter="url(#pharma-biotech-glow)"><circle cx="546.1" cy="238.4" r="6.2" fill="#5CC8F5" opacity="0.18"/><circle cx="546.1" cy="238.4" r="2.8" fill="#5CC8F5"/></g><g opacity="1" filter="url(#pharma-biotech-glow)"><circle cx="701.9" cy="238.4" r="13.6" fill="#0088CF" opacity="0.18"/><circle cx="701.9" cy="238.4" r="6.2" fill="#0088CF"/></g><g opacity="0.6" filter="url(#pharma-biotech-glow)"><circle cx="505.1" cy="219.8" r="7.4" fill="#5CC8F5" opacity="0.18"/><circle cx="505.1" cy="219.8" r="3.4" fill="#5CC8F5"/></g><g opacity="0.9" filter="url(#pharma-biotech-glow)"><circle cx="742.9" cy="219.8" r="12.4" fill="#0088CF" opacity="0.18"/><circle cx="742.9" cy="219.8" r="5.6" fill="#0088CF"/></g><g opacity="0.7" filter="url(#pharma-biotech-glow)"><circle cx="482.9" cy="201.3" r="9" fill="#EE2424" opacity="0.18"/><circle cx="482.9" cy="201.3" r="4.1" fill="#EE2424"/></g><g opacity="0.8" filter="url(#pharma-biotech-glow)"><circle cx="765.1" cy="201.3" r="10.8" fill="#0088CF" opacity="0.18"/><circle cx="765.1" cy="201.3" r="4.9" fill="#0088CF"/></g><g opacity="0.8" filter="url(#pharma-biotech-glow)"><circle cx="482.9" cy="182.7" r="10.8" fill="#5CC8F5" opacity="0.18"/><circle cx="482.9" cy="182.7" r="4.9" fill="#5CC8F5"/></g><g opacity="0.7" filter="url(#pharma-biotech-glow)"><circle cx="765.1" cy="182.7" r="9" fill="#0088CF" opacity="0.18"/><circle cx="765.1" cy="182.7" r="4.1" fill="#0088CF"/></g><g opacity="0.9" filter="url(#pharma-biotech-glow)"><circle cx="505.1" cy="164.2" r="12.4" fill="#5CC8F5" opacity="0.18"/><circle cx="505.1" cy="164.2" r="5.6" fill="#5CC8F5"/></g><g opacity="0.6" filter="url(#pharma-biotech-glow)"><circle cx="742.9" cy="164.2" r="7.4" fill="#0088CF" opacity="0.18"/><circle cx="742.9" cy="164.2" r="3.4" fill="#0088CF"/></g><g opacity="1" filter="url(#pharma-biotech-glow)"><circle cx="546.1" cy="145.6" r="13.6" fill="#5CC8F5" opacity="0.18"/><circle cx="546.1" cy="145.6" r="6.2" fill="#5CC8F5"/></g><g opacity="0.5" filter="url(#pharma-biotech-glow)"><circle cx="701.9" cy="145.6" r="6.2" fill="#0088CF" opacity="0.18"/><circle cx="701.9" cy="145.6" r="2.8" fill="#0088CF"/></g><g opacity="1" filter="url(#pharma-biotech-glow)"><circle cx="599.4" cy="127.1" r="14.2" fill="#5CC8F5" opacity="0.18"/><circle cx="599.4" cy="127.1" r="6.5" fill="#5CC8F5"/></g><g opacity="0.5" filter="url(#pharma-biotech-glow)"><circle cx="648.6" cy="127.1" r="5.6" fill="#0088CF" opacity="0.18"/><circle cx="648.6" cy="127.1" r="2.5" fill="#0088CF"/></g><g opacity="1" filter="url(#pharma-biotech-glow)"><circle cx="656.6" cy="108.5" r="14.2" fill="#5CC8F5" opacity="0.18"/><circle cx="656.6" cy="108.5" r="6.4" fill="#5CC8F5"/></g><g opacity="0.5" filter="url(#pharma-biotech-glow)"><circle cx="591.4" cy="108.5" r="5.6" fill="#0088CF" opacity="0.18"/><circle cx="591.4" cy="108.5" r="2.6" fill="#0088CF"/></g><g opacity="0.9" filter="url(#pharma-biotech-glow)"><circle cx="708.6" cy="90" r="13.5" fill="#5CC8F5" opacity="0.18"/><circle cx="708.6" cy="90" r="6.1" fill="#5CC8F5"/></g><g opacity="0.5" filter="url(#pharma-biotech-glow)"><circle cx="539.4" cy="90" r="6.3" fill="#0088CF" opacity="0.18"/><circle cx="539.4" cy="90" r="2.9" fill="#0088CF"/></g><g filter="url(#pharma-biotech-glow)"><polygon points="214.5,265 192,278 169.5,265 169.5,239 192,226 214.5,239" fill="none" stroke="#FF6A5C" stroke-width="1.6" stroke-opacity="0.8"/><circle cx="214.5" cy="265" r="3" fill="#FF6A5C"/><circle cx="192" cy="278" r="3" fill="#FF6A5C"/><circle cx="169.5" cy="265" r="3" fill="#FF6A5C"/><circle cx="169.5" cy="239" r="3" fill="#FF6A5C"/><circle cx="192" cy="226" r="3" fill="#FF6A5C"/><circle cx="214.5" cy="239" r="3" fill="#FF6A5C"/><polygon points="259.5,291 237,304 214.5,291 214.5,265 237,252 259.5,265" fill="none" stroke="#5CC8F5" stroke-width="1.6" stroke-opacity="0.8"/><circle cx="259.5" cy="291" r="3" fill="#5CC8F5"/><circle cx="237" cy="304" r="3" fill="#5CC8F5"/><circle cx="214.5" cy="291" r="3" fill="#5CC8F5"/><circle cx="214.5" cy="265" r="3" fill="#5CC8F5"/><circle cx="237" cy="252" r="3" fill="#5CC8F5"/><circle cx="259.5" cy="265" r="3" fill="#5CC8F5"/><path d="M237 252L237 222" stroke="#5CC8F5" stroke-opacity="0.8" stroke-width="1.6" fill="none"/></g><g filter="url(#pharma-biotech-glow)"><polygon points="930,190.4 912,200.8 894,190.4 894,169.6 912,159.2 930,169.6" fill="none" stroke="#5CC8F5" stroke-width="1.6" stroke-opacity="0.8"/><circle cx="930" cy="190.4" r="3" fill="#5CC8F5"/><circle cx="912" cy="200.8" r="3" fill="#5CC8F5"/><circle cx="894" cy="190.4" r="3" fill="#5CC8F5"/><circle cx="894" cy="169.6" r="3" fill="#5CC8F5"/><circle cx="912" cy="159.2" r="3" fill="#5CC8F5"/><circle cx="930" cy="169.6" r="3" fill="#5CC8F5"/><polygon points="966,211.2 948,221.6 930,211.2 930,190.4 948,180 966,190.4" fill="none" stroke="#5CC8F5" stroke-width="1.6" stroke-opacity="0.8"/><circle cx="966" cy="211.2" r="3" fill="#5CC8F5"/><circle cx="948" cy="221.6" r="3" fill="#5CC8F5"/><circle cx="930" cy="211.2" r="3" fill="#5CC8F5"/><circle cx="930" cy="190.4" r="3" fill="#5CC8F5"/><circle cx="948" cy="180" r="3" fill="#5CC8F5"/><circle cx="966" cy="190.4" r="3" fill="#5CC8F5"/><path d="M948 180L948 156" stroke="#5CC8F5" stroke-opacity="0.8" stroke-width="1.6" fill="none"/></g><g filter="url(#pharma-biotech-glow)"><polygon points="973.5,511.8 960,519.6 946.5,511.8 946.5,496.2 960,488.4 973.5,496.2" fill="none" stroke="#5CC8F5" stroke-width="1.6" stroke-opacity="0.8"/><circle cx="973.5" cy="511.8" r="3" fill="#5CC8F5"/><circle cx="960" cy="519.6" r="3" fill="#5CC8F5"/><circle cx="946.5" cy="511.8" r="3" fill="#5CC8F5"/><circle cx="946.5" cy="496.2" r="3" fill="#5CC8F5"/><circle cx="960" cy="488.4" r="3" fill="#5CC8F5"/><circle cx="973.5" cy="496.2" r="3" fill="#5CC8F5"/><polygon points="1000.5,527.4 987,535.2 973.5,527.4 973.5,511.8 987,504 1000.5,511.8" fill="none" stroke="#5CC8F5" stroke-width="1.6" stroke-opacity="0.8"/><circle cx="1000.5" cy="527.4" r="3" fill="#5CC8F5"/><circle cx="987" cy="535.2" r="3" fill="#5CC8F5"/><circle cx="973.5" cy="527.4" r="3" fill="#5CC8F5"/><circle cx="973.5" cy="511.8" r="3" fill="#5CC8F5"/><circle cx="987" cy="504" r="3" fill="#5CC8F5"/><circle cx="1000.5" cy="511.8" r="3" fill="#5CC8F5"/><path d="M987 504L987 486" stroke="#5CC8F5" stroke-opacity="0.8" stroke-width="1.6" fill="none"/></g></svg>
